{
  "source": "C:\\Users\\Peter\\Desktop\\stuff\\MIUN\\quantitative_research\\video_compression\\videos\\UVG\\ReadySteadyGo_1920x1080_120fps_420_8bit_YUV.y4m",
  "output": "C:\\Users\\Peter\\Desktop\\stuff\\MIUN\\quantitative_research\\video_compression\\compressed_videos\\UVG\\h264\\4\\ReadySteadyGo_1920x1080_120fps_420_8bit_YUV_h264.mp4",
  "codec": "h264",
  "ok": "[yuv4mpegpipe @ 0000011c0ff45ec0] Stream #0: not enough frames to estimate rate; consider increasing probesize\nInput #0, yuv4mpegpipe, from 'C:\\Users\\Peter\\Desktop\\stuff\\MIUN\\quantitative_research\\video_compression\\videos\\UVG\\ReadySteadyGo_1920x1080_120fps_420_8bit_YUV.y4m':\n  Duration: 00:00:05.00, start: 0.000000, bitrate: 2985989 kb/s\n  Stream #0:0: Video: rawvideo (I420 / 0x30323449), yuv420p(progressive), 1920x1080, 120 fps, 120 tbr, 120 tbn\n[out#0/mp4 @ 0000011c0ff49ac0] Codec AVOption b:a (set bitrate (in bits/s)) has not been used for any stream. The most likely reason is either wrong type (e.g. a video option with no video streams) or that it is a private option of some decoder which was not actually used for any stream.\nStream mapping:\n  Stream #0:0 -> #0:0 (rawvideo (native) -> h264 (libx264))\nPress [q] to stop, [?] for help\n[libx264 @ 0000011c0ff4cb80] using cpu capabilities: MMX2 SSE2Fast SSSE3 SSE4.2 AVX FMA3 BMI2 AVX2\n[libx264 @ 0000011c0ff4cb80] profile High, level 5.1, 4:2:0, 8-bit\n[libx264 @ 0000011c0ff4cb80] 264 - core 165 r3222 b35605a - H.264/MPEG-4 AVC codec - Copyleft 2003-2025 - http://www.videolan.org/x264.html - options: cabac=1 ref=5 deblock=1:0:0 analyse=0x3:0x113 me=hex subme=8 psy=1 psy_rd=1.00:0.00 mixed_ref=1 me_range=16 chroma_me=1 trellis=2 8x8dct=1 cqm=0 deadzone=21,11 fast_pskip=1 chroma_qp_offset=-2 threads=18 lookahead_threads=3 sliced_threads=0 nr=0 decimate=1 interlaced=0 bluray_compat=0 constrained_intra=0 bframes=3 b_pyramid=2 b_adapt=1 b_bias=0 direct=3 weightb=1 open_gop=0 weightp=2 keyint=250 keyint_min=25 scenecut=40 intra_refresh=0 rc_lookahead=50 rc=cbr mbtree=1 bitrate=4000 ratetol=1.0 qcomp=0.60 qpmin=0 qpmax=69 qpstep=4 vbv_maxrate=4000 vbv_bufsize=4000 nal_hrd=none filler=0 ip_ratio=1.40 aq=1:1.00\nOutput #0, mp4, to 'C:\\Users\\Peter\\Desktop\\stuff\\MIUN\\quantitative_research\\video_compression\\compressed_videos\\UVG\\h264\\4\\ReadySteadyGo_1920x1080_120fps_420_8bit_YUV_h264.mp4':\n  Metadata:\n    encoder         : Lavf62.3.100\n  Stream #0:0: Video: h264 (avc1 / 0x31637661), yuv420p(tv, progressive), 1920x1080, q=2-31, 4000 kb/s, 120 fps, 15360 tbn\n    Metadata:\n      encoder         : Lavc62.11.100 libx264\n    Side data:\n      cpb: bitrate max/min/avg: 4000000/0/4000000 buffer size: 4000000 vbv_delay: N/A\nframe=    0 fps=0.0 q=0.0 size=       0KiB time=N/A bitrate=N/A speed=N/A elapsed=0:00:00.50    \nframe=    4 fps=3.9 q=44.0 size=       0KiB time=00:00:00.01 bitrate=  23.0kbits/s speed=0.0163x elapsed=0:00:01.01    \nframe=   48 fps= 31 q=40.0 size=       0KiB time=00:00:00.38 bitrate=   1.0kbits/s speed=0.249x elapsed=0:00:01.53    \nframe=   92 fps= 45 q=40.0 size=     256KiB time=00:00:00.74 bitrate=2828.1kbits/s speed=0.359x elapsed=0:00:02.06    \nframe=  124 fps= 48 q=41.0 size=     256KiB time=00:00:00.98 bitrate=2133.1kbits/s speed=0.38x elapsed=0:00:02.59    \nframe=  160 fps= 51 q=42.0 size=     512KiB time=00:00:01.31 bitrate=3185.8kbits/s speed=0.421x elapsed=0:00:03.12    \nframe=  197 fps= 54 q=42.0 size=     768KiB time=00:00:01.62 bitrate=3871.9kbits/s speed=0.446x elapsed=0:00:03.64    \nframe=  231 fps= 56 q=43.0 size=     768KiB time=00:00:01.90 bitrate=3297.0kbits/s speed=0.459x elapsed=0:00:04.16    \nframe=  261 fps= 56 q=45.0 size=    1024KiB time=00:00:02.15 bitrate=3886.8kbits/s speed=0.461x elapsed=0:00:04.68    \nframe=  295 fps= 57 q=46.0 size=    1280KiB time=00:00:02.43 bitrate=4309.4kbits/s speed=0.468x elapsed=0:00:05.19    \nframe=  333 fps= 58 q=46.0 size=    1280KiB time=00:00:02.75 bitrate=3801.6kbits/s speed=0.482x elapsed=0:00:05.72    \nframe=  366 fps= 59 q=46.0 size=    1536KiB time=00:00:03.03 bitrate=4148.3kbits/s speed=0.485x elapsed=0:00:06.24    \nframe=  399 fps= 59 q=47.0 size=    1536KiB time=00:00:03.30 bitrate=3803.5kbits/s speed=0.489x elapsed=0:00:06.76    \nframe=  434 fps= 59 q=45.0 size=    1792KiB time=00:00:03.60 bitrate=4077.9kbits/s speed=0.493x elapsed=0:00:07.29    \nframe=  472 fps= 60 q=46.0 size=    2048KiB time=00:00:03.91 bitrate=4283.6kbits/s speed=0.502x elapsed=0:00:07.80    \nframe=  510 fps= 61 q=45.0 size=    2048KiB time=00:00:04.23 bitrate=3963.2kbits/s speed=0.509x elapsed=0:00:08.32    \nframe=  560 fps= 63 q=45.0 size=    2304KiB time=00:00:04.64 bitrate=4066.4kbits/s speed=0.525x elapsed=0:00:08.83    \n[mp4 @ 0000011c0ff49bc0] Starting second pass: moving the moov atom to the beginning of the file\n[out#0/mp4 @ 0000011c0ff49ac0] video:2530KiB audio:0KiB subtitle:0KiB other streams:0KiB global headers:0KiB muxing overhead: 0.302121%\nframe=  600 fps= 66 q=-1.0 Lsize=    2538KiB time=00:00:04.98 bitrate=4171.5kbits/s speed=0.546x elapsed=0:00:09.12    \n[libx264 @ 0000011c0ff4cb80] frame I:3     Avg QP:38.59  size: 35307\n[libx264 @ 0000011c0ff4cb80] frame P:188   Avg QP:41.20  size:  7604\n[libx264 @ 0000011c0ff4cb80] frame B:409   Avg QP:44.67  size:  2578\n[libx264 @ 0000011c0ff4cb80] consecutive B-frames:  1.7% 16.7% 17.0% 64.7%\n[libx264 @ 0000011c0ff4cb80] mb I  I16..4: 24.7% 69.2%  6.0%\n[libx264 @ 0000011c0ff4cb80] mb P  I16..4:  1.9%  3.3%  0.1%  P16..4: 23.8%  2.3%  2.0%  0.0%  0.0%    skip:66.6%\n[libx264 @ 0000011c0ff4cb80] mb B  I16..4:  0.0%  0.1%  0.0%  B16..8: 23.9%  0.9%  0.0%  direct: 0.1%  skip:74.8%  L0:37.8% L1:61.8% BI: 0.4%\n[libx264 @ 0000011c0ff4cb80] 8x8 transform intra:64.4% inter:90.7%\n[libx264 @ 0000011c0ff4cb80] direct mvs  spatial:97.6% temporal:2.4%\n[libx264 @ 0000011c0ff4cb80] coded y,uvDC,uvAC intra: 24.6% 32.1% 5.5% inter: 1.3% 2.3% 0.0%\n[libx264 @ 0000011c0ff4cb80] i16 v,h,dc,p: 40% 36%  5% 19%\n[libx264 @ 0000011c0ff4cb80] i8 v,h,dc,ddl,ddr,vr,hd,vl,hu: 16%  8% 21%  7% 11% 11% 11%  7%  8%\n[libx264 @ 0000011c0ff4cb80] i4 v,h,dc,ddl,ddr,vr,hd,vl,hu: 25% 13% 11%  7% 10% 10%  9%  6%  9%\n[libx264 @ 0000011c0ff4cb80] i8c dc,h,v,p: 60% 23% 13%  4%\n[libx264 @ 0000011c0ff4cb80] Weighted P-Frames: Y:0.0% UV:0.0%\n[libx264 @ 0000011c0ff4cb80] ref P L0: 62.5%  8.9% 16.0%  6.0%  6.4%  0.2%\n[libx264 @ 0000011c0ff4cb80] ref B L0: 89.3%  7.1%  2.8%  0.7%\n[libx264 @ 0000011c0ff4cb80] ref B L1: 98.0%  2.0%\n[libx264 @ 0000011c0ff4cb80] kb/s:4143.87\n",
  "seconds": 9.258192300796509,
  "probe_out": {}
}